<mxfile host="app.diagrams.net" modified="2023-04-15T23:26:21.046Z" agent="Mozilla/5.0 (Windows NT 10.0; Win64; x64) AppleWebKit/537.36 (KHTML, like Gecko) Chrome/112.0.0.0 Safari/537.36 Edg/112.0.1722.39" version="21.1.8" etag="I8gTKfY29VYi2_772-11" type="github">
  <diagram name="Page-1" id="W1ZNMWO5-H7LVogcB0IQ">
    <mxGraphModel>
      <root>
        <mxCell id="0" />
        <mxCell id="1" parent="0" />
      </root>
    </mxGraphModel>
  </diagram>
</mxfile>
